<svg xmlns="http://www.w3.org/2000/svg" width="40" height="40" viewBox="0 0 40 40"><path fill="#858E98" d="M39.66 19.937c0 10.882-8.82 19.7-19.702 19.7-10.877 0-19.7-8.818-19.7-19.7C.26 9.06 9.082.237 19.96.237c10.88 0 19.7 8.822 19.7 19.7z"/><path fill="#fff" d="M24.746 9.824c0-2.502-2.147-4.335-4.794-4.335-2.64 0-4.782 1.832-4.782 4.334v11.26c0 2.496 2.143 4.33 4.782 4.33 2.646 0 4.794-1.834 4.794-4.33V9.823z"/><path fill="#fff" d="M26.563 15.698v5.6c0 3.32-2.904 5.924-6.61 5.924-3.7 0-6.605-2.604-6.605-5.924v-5.6h-1.544v5.6c0 3.733 3.286 7.106 7.315 7.344v4.433H14.3v1.55h11.446v-1.55H20.71v-4.433c4.028-.237 7.444-3.61 7.444-7.344v-5.6h-1.59z"/></svg>